<svg width="24" height="24" viewBox="0 0 24 24" fill="none" xmlns="http://www.w3.org/2000/svg">
  <path opacity="0.32" d="M9 10H15V16H9V10Z" fill="#1877F2"/>
  <path d="M8 9H16V15H14V17H10V15H8V9ZM10 11V13H14V11H10Z" fill="#1877F2"/>
  <path opacity="0.32" d="M2 12L6 8.5V10.5H8V13.5H6V15.5L2 12Z" fill="#1877F2"/>
  <path d="M2 12L6 8.5V10.5H8V13.5H6V15.5L2 12Z" fill="#1877F2"/>
  <path opacity="0.32" d="M22 12L18 8.5V10.5H16V13.5H18V15.5L22 12Z" fill="#1877F2"/>
  <path d="M22 12L18 8.5V10.5H16V13.5H18V15.5L22 12Z" fill="#1877F2"/>
</svg>
