<svg width="24" height="24" viewBox="0 0 24 24" fill="none" xmlns="http://www.w3.org/2000/svg">
  <path opacity="0.32" d="M12 2C12.5523 2 13 2.44772 13 3V5C13 5.55228 12.5523 6 12 6C11.4477 6 11 5.55228 11 5V3C11 2.44772 11.4477 2 12 2Z" fill="#1877F2"/>
  <path d="M4 9C4 8.44772 4.44772 8 5 8H7C7.55228 8 8 8.44772 8 9C8 9.55228 7.55228 10 7 10H5C4.44772 10 4 9.55228 4 9Z" fill="#1877F2"/>
  <path d="M16 9C16 8.44772 16.4477 8 17 8H19C19.5523 8 20 8.44772 20 9C20 9.55228 19.5523 10 19 10H17C16.4477 10 16 9.55228 16 9Z" fill="#1877F2"/>
  <path d="M6.34315 14.3431C5.95262 13.9526 5.31946 13.9526 4.92893 14.3431C4.53841 14.7337 4.53841 15.3668 4.92893 15.7574L6.34315 17.1716C6.73368 17.5621 7.36683 17.5621 7.75736 17.1716C8.14789 16.7811 8.14789 16.148 7.75736 15.7574L6.34315 14.3431Z" fill="#1877F2"/>
  <path d="M17.6569 14.3431C17.2664 13.9526 16.6332 13.9526 16.2426 14.3431C15.8521 14.7337 15.8521 15.3668 16.2426 15.7574L17.6569 17.1716C18.0474 17.5621 18.6805 17.5621 19.0711 17.1716C19.4616 16.7811 19.4616 16.148 19.0711 15.7574L17.6569 14.3431Z" fill="#1877F2"/>
  <path d="M8 18C8 16.3431 9.34315 15 11 15H13C14.6569 15 16 16.3431 16 18C16 19.6569 14.6569 21 13 21H11C9.34315 21 8 19.6569 8 18Z" fill="#1877F2"/>
</svg>
